<svg id="Calque_1" data-name="Calque 1" xmlns="http://www.w3.org/2000/svg" viewBox="0 0 500 91.09"><defs><style>.cls-1{fill:#128559;}</style></defs><g id="Logo"><path class="cls-1" d="M28.4,44.18c-.49-4.1-2.9-6.83-8.84-6.83-6.75,0-10,5.54-10,11.89s3.05,11.9,10.6,11.9c5.15,0,7.23-2.26,8.36-6h8.76C36,62.9,30.33,68.93,19.48,68.93,7.27,68.93.76,59.45.76,49.24S7.27,29.56,19.4,29.56,36.59,37,37.16,44.18Z"/><path class="cls-1" d="M74.22,49.24c0-6.42-4.33-11.89-11.08-11.89-6.59,0-10.93,5.47-10.93,11.89s4.34,11.9,10.93,11.9c6.75,0,11.08-5.47,11.08-11.9m-30.77,0c0-10.6,7.79-19.68,19.69-19.68,12,0,19.84,9.08,19.84,19.68S75.19,68.93,63.14,68.93,43.45,59.85,43.45,49.24"/><path class="cls-1" d="M137.81,68V47c0-5.94-2.09-9.72-7-9.72C126.4,37.27,123,40,123,48.92V68h-8.76v-21c0-5.94-1.93-9.64-6.83-9.64-4.42,0-8,2.74-8,11.65V68H90.57V30.53h8.76v5.22a11.37,11.37,0,0,1,10.44-6.19c6.83,0,10.21,3,11.81,6.67,1.77-3.78,6.19-6.67,11.49-6.67,11.25,0,13.5,7.71,13.5,14.7V68Z"/><path class="cls-1" d="M164.3,49.24c0,6.43,4.34,11.89,11.09,11.89,6.58,0,10.92-5.46,10.92-11.89S182,37.35,175.39,37.35c-6.75,0-11.09,5.47-11.09,11.89m0-13.65c2.33-3.78,7.23-6,11.57-6,11.41,0,19.2,9.08,19.2,19.68s-7.79,19.69-19.2,19.69c-4.34,0-9.24-2.25-11.57-6V88h-8.76V30.52h8.76Z"/><rect class="cls-1" x="202.18" y="11.81" width="8.75" height="56.15"/><path class="cls-1" d="M223.06,30.53h8.75V68h-8.75ZM227.3,11a5.85,5.85,0,1,1-5.81,5.88A5.86,5.86,0,0,1,227.3,11"/><path class="cls-1" d="M291.18,68V47c0-5.94-2.1-9.72-7-9.72-4.42,0-7.87,2.74-7.87,11.65V68h-8.76v-21c0-5.94-1.93-9.64-6.82-9.64-4.43,0-8,2.74-8,11.65V68h-8.76V30.53h8.76v5.22a11.38,11.38,0,0,1,10.44-6.19c6.83,0,10.21,3,11.82,6.67,1.76-3.78,6.18-6.67,11.49-6.67,11.24,0,13.49,7.71,13.49,14.7V68Z"/><path class="cls-1" d="M317.49,45.39h18.64c0-5.71-3.78-9.24-9.08-9.24s-9.56,3.13-9.56,9.24m0,6.51c.4,5.38,2.73,9.71,10,9.71,5,0,6.91-2.24,8-4.89h8.84c-1,6.42-7.23,12.21-16.79,12.21-12.61,0-18.72-8.68-18.72-19.68,0-11.25,6.67-19.69,18.48-19.69,9.72,0,17.36,7.31,17.36,16.87a30.21,30.21,0,0,1-.41,5.47Z"/><path class="cls-1" d="M354.5,30.52h8.76v5.23c2.33-4,6.67-6.19,12.21-6.19,5.39,0,9.16,1.93,11.25,5.06,1.85,2.81,2.41,6,2.41,11.09v22.1h-8.76V48.6c0-6.43-1.84-11.33-8.11-11.33-6.11,0-9,4.9-9,11.33V68H354.5Z"/><polygon class="cls-1" points="402.68 18.01 402.68 30.52 396.34 30.52 396.34 37.84 402.68 37.84 402.68 67.81 411.44 67.81 411.44 37.84 420.04 37.84 420.04 30.52 411.44 30.52 411.44 18.01 402.68 18.01"/><path class="cls-1" d="M467,77a32.21,32.21,0,1,1,32.2-32.2A32.24,32.24,0,0,1,467,77m0-61.15A28.95,28.95,0,1,0,496,44.76,29,29,0,0,0,467,15.81"/><path class="cls-1" d="M446.46,33.86H450l7.38,18.47,7.38-18.47h3.59v21.8h-3.24V40.55c-.19.56-1.13,3.09-1.13,3.09l-5,12H455.8l-5-12s-.94-2.53-1.12-3.09V55.66h-3.24Z"/><polygon class="cls-1" points="473.19 33.85 487.52 33.85 487.52 36.84 476.56 36.84 476.56 42.89 486.65 42.89 486.65 45.88 476.56 45.88 476.56 52.67 487.62 52.67 487.62 55.66 473.19 55.66 473.19 33.85"/></g></svg>